HIERARCHY
ROOT Hips
{
    OFFSET 0.0 0.0 0.0
    CHANNELS 6 Xposition Yposition Zposition Zrotation Xrotation Yrotation
    JOINT LeftHipJoint
    {
        OFFSET 0.1 0.0 0.0
        CHANNELS 3 Zrotation Xrotation Yrotation
        JOINT LeftUpLeg
        {
            OFFSET 118.5487407266966 0.0 0.0
            CHANNELS 3 Zrotation Xrotation Yrotation
            JOINT LeftLeg
            {
                OFFSET 0.0 0.0 -400.8919164705812
                CHANNELS 3 Zrotation Xrotation Yrotation
                JOINT LeftFoot
                {
                    OFFSET 0.0 0.0 -393.90234936821884
                    CHANNELS 3 Zrotation Xrotation Yrotation
                    End Site
                    {
                        OFFSET 0.0 -0.1 0.0
                    }
                }
            }
        }
    }
    JOINT LowerBack
    {
        OFFSET 0.0 0.0 0.1
        CHANNELS 3 Zrotation Xrotation Yrotation
        JOINT Spine
        {
            OFFSET 0.0 0.0 219.02219264893986
            CHANNELS 3 Zrotation Xrotation Yrotation
            JOINT Spine1
            {
                OFFSET 0.0 0.0 253.2838655199106
                CHANNELS 3 Zrotation Xrotation Yrotation
                JOINT LeftShoulder
                {
                    OFFSET 0.1 0.0 0.0
                    CHANNELS 3 Zrotation Xrotation Yrotation
                    JOINT LeftArm
                    {
                        OFFSET 143.35724669423655 0.0 0.0
                        CHANNELS 3 Zrotation Xrotation Yrotation
                        JOINT LeftForeArm
                        {
                            OFFSET 256.7589107371844 0.0 0.0
                            CHANNELS 3 Zrotation Xrotation Yrotation
                            JOINT LeftHand
                            {
                                OFFSET 248.70846886702506 0.0 0.0
                                CHANNELS 3 Zrotation Xrotation Yrotation
                                End Site
                                {
                                    OFFSET 0.1 0.0 0.0
                                }
                            }
                        }
                    }
                }
                JOINT Neck
                {
                    OFFSET 0.0 0.0 0.1
                    CHANNELS 3 Zrotation Xrotation Yrotation
                    JOINT Neck1
                    {
                        OFFSET 0.0 0.0 107.46142605000237
                        CHANNELS 3 Zrotation Xrotation Yrotation
                        End Site
                        {
                            OFFSET 0.0 0.0 117.41291062220516
                        }
                    }
                }
                JOINT RightShoulder
                {
                    OFFSET -0.1 0.0 0.0
                    CHANNELS 3 Zrotation Xrotation Yrotation
                    JOINT RightArm
                    {
                        OFFSET -143.35724669423655 0.0 0.0
                        CHANNELS 3 Zrotation Xrotation Yrotation
                        JOINT RightForeArm
                        {
                            OFFSET -256.7589107371844 0.0 0.0
                            CHANNELS 3 Zrotation Xrotation Yrotation
                            JOINT RightHand
                            {
                                OFFSET -248.70846886702506 0.0 0.0
                                CHANNELS 3 Zrotation Xrotation Yrotation
                                End Site
                                {
                                    OFFSET -0.1 0.0 0.0
                                }
                            }
                        }
                    }
                }
            }
        }
    }
    JOINT RightHipJoint
    {
        OFFSET -0.1 0.0 0.0
        CHANNELS 3 Zrotation Xrotation Yrotation
        JOINT RightUpLeg
        {
            OFFSET -118.5487407266966 0.0 0.0
            CHANNELS 3 Zrotation Xrotation Yrotation
            JOINT RightLeg
            {
                OFFSET 0.0 0.0 -400.8919164705812
                CHANNELS 3 Zrotation Xrotation Yrotation
                JOINT RightFoot
                {
                    OFFSET 0.0 0.0 -393.90234936821884
                    CHANNELS 3 Zrotation Xrotation Yrotation
                    End Site
                    {
                        OFFSET 0.0 -0.1 0.0
                    }
                }
            }
        }
    }
}
MOTION
Frames: 6
Frame Time: 0.03333333333333333
0.0 0.0 799.5673850714135 29.20073226792746 1.305996535217442 7.219391572357113 0.0 0.0 -9.93923337957349e-17 -0.5284575456805625 -19.168995774504506 -3.4706825393959595 -1.0679524359430101 29.893437494482548 0.1391390610136813 0.0 0.0 7.951386703658792e-16 0.0 0.0 -9.93923337957349e-17 -0.19567875670894172 -7.3023247882030455 -1.416585500717618 3.9152563348541776 1.2055930282812651e-15 3.565939047959937e-16 0.0 0.0 0.0 -26.803295401046796 18.38023354697413 77.04032873545405 -20.24451168699895 3.099415979828842e-15 -3.788112712959631e-15 0.0 0.0 -9.93923337957349e-17 0.0 0.0 0.0 -10.527412137056036 -4.183586971218546 -2.845248070840076 0.0 0.0 0.0 4.824779074797162 -41.59820505694161 -34.40232269604129 114.35276011545186 0.0 0.0 0.0 0.0 0.0 0.0 0.0 -9.93923337957349e-17 -0.24012524055684875 -8.866254132456136 -6.237072806821687 -2.055501580260014 23.61725024009366 0.5976220395861341 0.0 0.0 0.0
0.0 0.0 799.5673850714135 29.259356627517004 1.3262668113948013 7.20633670271892 0.0 0.0 9.93923337957349e-17 -0.5418101616987403 -19.188844123210597 -3.4504705044579382 -1.0330957942737105 29.87485686885461 0.16967461607854245 -3.1805546814635168e-15 1.1034765745125397e-32 -3.975693351829396e-16 0.0 0.0 9.93923337957349e-17 -0.2005591507748956 -7.30885846093144 -1.3934130912192422 3.889180771765161 9.39388083509671e-16 -1.623088306513598e-15 0.0 0.0 0.0 -27.126627208704605 18.409208670965697 77.0598795377499 -20.215673515493478 6.530469603993656e-15 -2.3040817867484214e-14 0.0 0.0 1.441188840038156e-15 0.0 0.0 0.0 -10.536944059262584 -4.277094128762914 -2.871770846217795 0.0 0.0 0.0 4.915359116329462 -41.431815525359966 -34.39762751585732 114.27944990542542 -7.235127953610819e-15 -1.2246284543912458e-14 0.0 0.0 0.0 0.0 0.0 9.93923337957349e-17 -0.24983009892983737 -9.008394942697302 -6.190963965776976 -2.0369818354799767 23.808505486829812 0.4960553131389661 0.0 0.0 -1.5902773407317582e-15
0.0 0.0 799.5673850714135 29.229524962201104 1.3345152913564644 7.207490496840271 0.0 0.0 1.7393658414253607e-16 -0.5609855459139083 -19.170037029560984 -3.436505802565372 -0.9865873300584243 29.771976728001697 0.17629569836930414 0.0 0.0 -7.951386703658792e-16 0.0 0.0 1.7393658414253607e-16 -0.20550454557297934 -7.228070931456614 -1.4154648270956813 3.8701691830358302 2.3894568838999687e-16 1.1853154384253683e-15 0.0 0.0 -3.975693351829396e-16 -27.42919919626785 18.33769244008946 77.05894254968507 -20.26811669317106 1.3752154052431008e-15 -9.153201838583723e-16 3.9756933518293955e-16 7.95138670365879e-16 -7.454425034680115e-15 0.0 0.0 -3.975693351829396e-16 -10.680360208854324 -4.4005103720980765 -2.9690231622442482 0.0 0.0 -3.975693351829396e-16 4.978474104170104 -41.25252481220542 -34.44165055190906 114.0659498404552 2.6684341078337275e-15 1.7307187795621549e-15 0.0 0.0 0.0 0.0 0.0 1.7393658414253607e-16 -0.2638825462324214 -9.184678980941534 -6.099726446114634 -1.98246247965955 23.935495822338293 0.3779219441593151 0.0 0.0 7.951386703658792e-16
0.0 0.0 799.5673850714135 29.230556939261835 1.3053533465011529 7.176476046416912 0.0 0.0 2.981770013872047e-16 -0.5662625705010292 -19.040950264262626 -3.4552152329738934 -0.9785049132500369 29.694920501966823 0.2872388200698753 0.0 0.0 -3.9756933518293955e-16 0.0 0.0 2.981770013872047e-16 -0.2091613629797606 -7.23501718588743 -1.410692685263332 3.856579100616512 1.562621462897342e-15 -8.481990858570075e-16 0.0 0.0 3.975693351829396e-16 -27.639250220228785 18.288165048869473 77.07261082368132 -20.30774519508865 4.5835529934504645e-15 -1.6571834721571452e-14 0.0 0.0 -1.2424041724466863e-15 0.0 0.0 3.975693351829396e-16 -10.690706190172003 -4.352891584638461 -3.038911438723981 0.0 0.0 3.975693351829396e-16 5.212087979732 -40.85581852038918 -34.38122132954516 113.90639842878224 4.529200290700883e-15 1.0535340990677445e-14 0.0 0.0 0.0 0.0 0.0 2.981770013872047e-16 -0.2671904776856903 -9.146109426172544 -6.060921386823318 -1.9621995708431659 24.03653085620222 0.35613091429963645 0.0 0.0 -7.951386703658792e-16
0.0 0.0 799.5673850714135 29.249961972378347 1.4209691400507392 7.203078727375966 0.0 0.0 3.4787316828507215e-16 -0.5764256195280765 -19.046993942069665 -3.534384795707241 -1.0038860201597906 29.636734774926094 0.3774531537005028 0.0 0.0 -7.951386703658792e-16 0.0 0.0 3.4787316828507215e-16 -0.21401737842502738 -7.275298142157354 -1.4318731379643672 3.9350518982091622 9.66037825756582e-16 -8.2879432071835125e-16 0.0 0.0 0.0 -27.713298488099625 18.169914382002297 76.97591302768835 -20.393446732769895 4.5844859394097084e-15 1.2690622765662652e-14 0.0 0.0 -1.5902773407317584e-15 0.0 0.0 0.0 -10.735465104783158 -4.214077101416381 -3.1024531348746462 0.0 0.0 0.0 5.6141535227903425 -40.390050646291066 -34.03715520741072 112.94090588108287 0.0 0.0 0.0 0.0 0.0 0.0 0.0 3.4787316828507215e-16 -0.2693143488875972 -9.06288903947725 -6.080710065832011 -1.9422770806300944 23.863260615955816 0.23577813207086068 0.0 0.0 -7.951386703658792e-16
0.0 0.0 799.5673850714135 29.412860313542836 1.6391921871268569 7.162272698389961 -3.1805546814635164e-15 4.482873583957193e-33 -1.615125424180692e-16 -0.5874707085630688 -19.162674863519133 -3.4680199762853436 -0.9542783173815704 29.67481114395308 0.3537655673500156 0.0 0.0 -3.975693351829396e-16 -3.1805546814635164e-15 4.482873583957193e-33 -1.615125424180692e-16 -0.22060765693561452 -7.405839818852179 -1.345876665848284 4.024916742503661 2.526761326000365e-15 -1.6800453474864886e-15 0.0 0.0 0.0 -27.520573746233136 18.151978276799504 76.85123350100106 -20.58589043677337 5.526444856050042e-15 -1.4856205561401797e-14 7.951386703658792e-16 -1.3103784322336408e-32 -1.888454342118963e-15 0.0 0.0 0.0 -10.837239094073606 -4.093035903212665 -3.286991198265419 0.0 0.0 0.0 6.090933243282145 -39.769215251672904 -33.5288866168607 111.51502241026219 -2.6292485383355395e-15 -1.78968718088942e-15 0.0 0.0 0.0 -3.1805546814635164e-15 4.482873583957193e-33 -1.615125424180692e-16 -0.275006332257577 -9.141136779364684 -6.103720580352022 -1.936718977308489 23.79478023744837 0.2622228926862605 0.0 0.0 7.951386703658792e-16
